<mxfile host="app.diagrams.net" modified="2024-05-28T14:36:24.063Z" agent="Mozilla/5.0 (Windows NT 10.0; Win64; x64) AppleWebKit/537.36 (KHTML, like Gecko) Chrome/122.0.0.0 YaBrowser/24.4.0.0 Safari/537.36" etag="ac9AgEBIBQPdVkhvqDPl" version="24.4.9" type="device">
  <diagram name="Страница — 1" id="u98IMLEyRBOqplYZab6t">
    <mxGraphModel dx="1793" dy="-133" grid="1" gridSize="10" guides="1" tooltips="1" connect="1" arrows="1" fold="1" page="1" pageScale="1" pageWidth="827" pageHeight="1169" math="0" shadow="0">
      <root>
        <mxCell id="0" />
        <mxCell id="1" parent="0" />
        <mxCell id="Zd8VVHACrejs0ei8sGvc-4" style="edgeStyle=orthogonalEdgeStyle;rounded=0;orthogonalLoop=1;jettySize=auto;html=1;entryX=0.5;entryY=0;entryDx=0;entryDy=0;" edge="1" parent="1" source="Zd8VVHACrejs0ei8sGvc-5" target="Zd8VVHACrejs0ei8sGvc-7">
          <mxGeometry relative="1" as="geometry" />
        </mxCell>
        <mxCell id="Zd8VVHACrejs0ei8sGvc-5" value="Начало" style="rounded=1;whiteSpace=wrap;html=1;" vertex="1" parent="1">
          <mxGeometry x="841" y="1200" width="142" height="20" as="geometry" />
        </mxCell>
        <mxCell id="Zd8VVHACrejs0ei8sGvc-6" style="edgeStyle=orthogonalEdgeStyle;rounded=0;orthogonalLoop=1;jettySize=auto;html=1;entryX=0.5;entryY=0;entryDx=0;entryDy=0;" edge="1" parent="1" source="Zd8VVHACrejs0ei8sGvc-7" target="Zd8VVHACrejs0ei8sGvc-9">
          <mxGeometry relative="1" as="geometry" />
        </mxCell>
        <mxCell id="Zd8VVHACrejs0ei8sGvc-7" value="Главная страница" style="rounded=0;whiteSpace=wrap;html=1;" vertex="1" parent="1">
          <mxGeometry x="852" y="1260" width="120" height="60" as="geometry" />
        </mxCell>
        <mxCell id="Zd8VVHACrejs0ei8sGvc-8" style="edgeStyle=orthogonalEdgeStyle;rounded=0;orthogonalLoop=1;jettySize=auto;html=1;entryX=0.5;entryY=0;entryDx=0;entryDy=0;" edge="1" parent="1" source="Zd8VVHACrejs0ei8sGvc-9" target="Zd8VVHACrejs0ei8sGvc-14">
          <mxGeometry relative="1" as="geometry" />
        </mxCell>
        <mxCell id="Zd8VVHACrejs0ei8sGvc-9" value="Кнопка &quot;Личный кабинет&quot;" style="rounded=0;whiteSpace=wrap;html=1;" vertex="1" parent="1">
          <mxGeometry x="852" y="1360" width="120" height="60" as="geometry" />
        </mxCell>
        <mxCell id="Zd8VVHACrejs0ei8sGvc-10" style="edgeStyle=orthogonalEdgeStyle;rounded=0;orthogonalLoop=1;jettySize=auto;html=1;entryX=0.5;entryY=0;entryDx=0;entryDy=0;" edge="1" parent="1" source="Zd8VVHACrejs0ei8sGvc-14" target="Zd8VVHACrejs0ei8sGvc-16">
          <mxGeometry relative="1" as="geometry" />
        </mxCell>
        <mxCell id="Zd8VVHACrejs0ei8sGvc-11" value="Да" style="edgeLabel;html=1;align=center;verticalAlign=middle;resizable=0;points=[];" vertex="1" connectable="0" parent="Zd8VVHACrejs0ei8sGvc-10">
          <mxGeometry x="-0.1134" y="-2" relative="1" as="geometry">
            <mxPoint as="offset" />
          </mxGeometry>
        </mxCell>
        <mxCell id="Zd8VVHACrejs0ei8sGvc-12" style="edgeStyle=orthogonalEdgeStyle;rounded=0;orthogonalLoop=1;jettySize=auto;html=1;entryX=0.5;entryY=0;entryDx=0;entryDy=0;" edge="1" parent="1" source="Zd8VVHACrejs0ei8sGvc-14" target="Zd8VVHACrejs0ei8sGvc-18">
          <mxGeometry relative="1" as="geometry" />
        </mxCell>
        <mxCell id="Zd8VVHACrejs0ei8sGvc-13" value="Нет" style="edgeLabel;html=1;align=center;verticalAlign=middle;resizable=0;points=[];" vertex="1" connectable="0" parent="Zd8VVHACrejs0ei8sGvc-12">
          <mxGeometry x="-0.2285" relative="1" as="geometry">
            <mxPoint as="offset" />
          </mxGeometry>
        </mxCell>
        <mxCell id="Zd8VVHACrejs0ei8sGvc-14" value="Пользователь зарегестрирован?" style="rhombus;whiteSpace=wrap;html=1;" vertex="1" parent="1">
          <mxGeometry x="842" y="1460" width="140" height="90" as="geometry" />
        </mxCell>
        <mxCell id="Zd8VVHACrejs0ei8sGvc-15" style="edgeStyle=orthogonalEdgeStyle;rounded=0;orthogonalLoop=1;jettySize=auto;html=1;entryX=0.5;entryY=0;entryDx=0;entryDy=0;" edge="1" parent="1" source="Zd8VVHACrejs0ei8sGvc-16" target="Zd8VVHACrejs0ei8sGvc-29">
          <mxGeometry relative="1" as="geometry" />
        </mxCell>
        <mxCell id="Zd8VVHACrejs0ei8sGvc-16" value="Кнопка &quot;Уже есть аккаунт&quot;" style="rounded=0;whiteSpace=wrap;html=1;" vertex="1" parent="1">
          <mxGeometry x="612" y="1530" width="120" height="60" as="geometry" />
        </mxCell>
        <mxCell id="Zd8VVHACrejs0ei8sGvc-17" style="edgeStyle=orthogonalEdgeStyle;rounded=0;orthogonalLoop=1;jettySize=auto;html=1;entryX=0.5;entryY=0;entryDx=0;entryDy=0;" edge="1" parent="1" source="Zd8VVHACrejs0ei8sGvc-18" target="Zd8VVHACrejs0ei8sGvc-23">
          <mxGeometry relative="1" as="geometry" />
        </mxCell>
        <mxCell id="Zd8VVHACrejs0ei8sGvc-18" value="Заполнение формы регистрации" style="shape=parallelogram;perimeter=parallelogramPerimeter;whiteSpace=wrap;html=1;fixedSize=1;" vertex="1" parent="1">
          <mxGeometry x="1093" y="1530" width="140" height="60" as="geometry" />
        </mxCell>
        <mxCell id="Zd8VVHACrejs0ei8sGvc-19" style="edgeStyle=orthogonalEdgeStyle;rounded=0;orthogonalLoop=1;jettySize=auto;html=1;entryX=0;entryY=0.5;entryDx=0;entryDy=0;" edge="1" parent="1" source="Zd8VVHACrejs0ei8sGvc-23" target="Zd8VVHACrejs0ei8sGvc-25">
          <mxGeometry relative="1" as="geometry" />
        </mxCell>
        <mxCell id="Zd8VVHACrejs0ei8sGvc-20" value="Нет" style="edgeLabel;html=1;align=center;verticalAlign=middle;resizable=0;points=[];" vertex="1" connectable="0" parent="Zd8VVHACrejs0ei8sGvc-19">
          <mxGeometry x="-0.1229" y="2" relative="1" as="geometry">
            <mxPoint as="offset" />
          </mxGeometry>
        </mxCell>
        <mxCell id="Zd8VVHACrejs0ei8sGvc-21" style="edgeStyle=orthogonalEdgeStyle;rounded=0;orthogonalLoop=1;jettySize=auto;html=1;entryX=0.5;entryY=0;entryDx=0;entryDy=0;" edge="1" parent="1" source="Zd8VVHACrejs0ei8sGvc-23" target="Zd8VVHACrejs0ei8sGvc-27">
          <mxGeometry relative="1" as="geometry" />
        </mxCell>
        <mxCell id="Zd8VVHACrejs0ei8sGvc-22" value="Да" style="edgeLabel;html=1;align=center;verticalAlign=middle;resizable=0;points=[];" vertex="1" connectable="0" parent="Zd8VVHACrejs0ei8sGvc-21">
          <mxGeometry x="-0.26" y="-3" relative="1" as="geometry">
            <mxPoint as="offset" />
          </mxGeometry>
        </mxCell>
        <mxCell id="Zd8VVHACrejs0ei8sGvc-23" value="Правильно ли введены данные?" style="rhombus;whiteSpace=wrap;html=1;" vertex="1" parent="1">
          <mxGeometry x="1093" y="1620" width="140" height="90" as="geometry" />
        </mxCell>
        <mxCell id="Zd8VVHACrejs0ei8sGvc-24" style="edgeStyle=orthogonalEdgeStyle;rounded=0;orthogonalLoop=1;jettySize=auto;html=1;entryX=1;entryY=0.5;entryDx=0;entryDy=0;" edge="1" parent="1" source="Zd8VVHACrejs0ei8sGvc-25" target="Zd8VVHACrejs0ei8sGvc-18">
          <mxGeometry relative="1" as="geometry">
            <Array as="points">
              <mxPoint x="1351.9999999999998" y="1560" />
            </Array>
          </mxGeometry>
        </mxCell>
        <mxCell id="Zd8VVHACrejs0ei8sGvc-25" value="Оповещение о ошибке" style="rounded=1;whiteSpace=wrap;html=1;" vertex="1" parent="1">
          <mxGeometry x="1291.9999999999998" y="1635" width="120" height="60" as="geometry" />
        </mxCell>
        <mxCell id="Zd8VVHACrejs0ei8sGvc-26" style="edgeStyle=orthogonalEdgeStyle;rounded=0;orthogonalLoop=1;jettySize=auto;html=1;entryX=1;entryY=0.5;entryDx=0;entryDy=0;" edge="1" parent="1" source="Zd8VVHACrejs0ei8sGvc-27" target="Zd8VVHACrejs0ei8sGvc-16">
          <mxGeometry relative="1" as="geometry">
            <Array as="points">
              <mxPoint x="1062" y="1780" />
              <mxPoint x="1062" y="1560" />
            </Array>
          </mxGeometry>
        </mxCell>
        <mxCell id="Zd8VVHACrejs0ei8sGvc-27" value="Оповещение о успешной регистрации" style="rounded=1;whiteSpace=wrap;html=1;" vertex="1" parent="1">
          <mxGeometry x="1102.9999999999998" y="1750" width="120" height="60" as="geometry" />
        </mxCell>
        <mxCell id="Zd8VVHACrejs0ei8sGvc-28" style="edgeStyle=orthogonalEdgeStyle;rounded=0;orthogonalLoop=1;jettySize=auto;html=1;entryX=0.5;entryY=0;entryDx=0;entryDy=0;" edge="1" parent="1" source="Zd8VVHACrejs0ei8sGvc-29" target="Zd8VVHACrejs0ei8sGvc-34">
          <mxGeometry relative="1" as="geometry" />
        </mxCell>
        <mxCell id="Zd8VVHACrejs0ei8sGvc-29" value="Заполнение формы авторизации" style="shape=parallelogram;perimeter=parallelogramPerimeter;whiteSpace=wrap;html=1;fixedSize=1;" vertex="1" parent="1">
          <mxGeometry x="602" y="1620" width="140" height="60" as="geometry" />
        </mxCell>
        <mxCell id="Zd8VVHACrejs0ei8sGvc-30" style="edgeStyle=orthogonalEdgeStyle;rounded=0;orthogonalLoop=1;jettySize=auto;html=1;entryX=1;entryY=0.5;entryDx=0;entryDy=0;" edge="1" parent="1" source="Zd8VVHACrejs0ei8sGvc-34" target="Zd8VVHACrejs0ei8sGvc-36">
          <mxGeometry relative="1" as="geometry" />
        </mxCell>
        <mxCell id="Zd8VVHACrejs0ei8sGvc-31" value="Да" style="edgeLabel;html=1;align=center;verticalAlign=middle;resizable=0;points=[];" vertex="1" connectable="0" parent="Zd8VVHACrejs0ei8sGvc-30">
          <mxGeometry x="-0.0667" y="2" relative="1" as="geometry">
            <mxPoint as="offset" />
          </mxGeometry>
        </mxCell>
        <mxCell id="Zd8VVHACrejs0ei8sGvc-32" style="edgeStyle=orthogonalEdgeStyle;rounded=0;orthogonalLoop=1;jettySize=auto;html=1;entryX=0;entryY=0.5;entryDx=0;entryDy=0;" edge="1" parent="1" source="Zd8VVHACrejs0ei8sGvc-34" target="Zd8VVHACrejs0ei8sGvc-41">
          <mxGeometry relative="1" as="geometry" />
        </mxCell>
        <mxCell id="Zd8VVHACrejs0ei8sGvc-33" value="Нет" style="edgeLabel;html=1;align=center;verticalAlign=middle;resizable=0;points=[];" vertex="1" connectable="0" parent="Zd8VVHACrejs0ei8sGvc-32">
          <mxGeometry x="-0.0329" y="1" relative="1" as="geometry">
            <mxPoint as="offset" />
          </mxGeometry>
        </mxCell>
        <mxCell id="Zd8VVHACrejs0ei8sGvc-34" value="Правильно ли введены данные?" style="rhombus;whiteSpace=wrap;html=1;" vertex="1" parent="1">
          <mxGeometry x="602" y="1710" width="140" height="90" as="geometry" />
        </mxCell>
        <mxCell id="Zd8VVHACrejs0ei8sGvc-35" style="edgeStyle=orthogonalEdgeStyle;rounded=0;orthogonalLoop=1;jettySize=auto;html=1;entryX=0.5;entryY=0;entryDx=0;entryDy=0;" edge="1" parent="1" source="Zd8VVHACrejs0ei8sGvc-36" target="Zd8VVHACrejs0ei8sGvc-39">
          <mxGeometry relative="1" as="geometry" />
        </mxCell>
        <mxCell id="Zd8VVHACrejs0ei8sGvc-36" value="Оповещение о успешной авторизации" style="rounded=1;whiteSpace=wrap;html=1;" vertex="1" parent="1">
          <mxGeometry x="387" y="1725" width="120" height="60" as="geometry" />
        </mxCell>
        <mxCell id="Zd8VVHACrejs0ei8sGvc-37" style="edgeStyle=orthogonalEdgeStyle;rounded=0;orthogonalLoop=1;jettySize=auto;html=1;entryX=0.5;entryY=0;entryDx=0;entryDy=0;" edge="1" parent="1" source="Zd8VVHACrejs0ei8sGvc-39" target="Zd8VVHACrejs0ei8sGvc-42">
          <mxGeometry relative="1" as="geometry" />
        </mxCell>
        <mxCell id="Zd8VVHACrejs0ei8sGvc-38" style="edgeStyle=orthogonalEdgeStyle;rounded=0;orthogonalLoop=1;jettySize=auto;html=1;entryX=0;entryY=0.5;entryDx=0;entryDy=0;" edge="1" parent="1" source="Zd8VVHACrejs0ei8sGvc-39" target="Zd8VVHACrejs0ei8sGvc-44">
          <mxGeometry relative="1" as="geometry">
            <Array as="points">
              <mxPoint x="320" y="1870" />
              <mxPoint x="320" y="1290" />
            </Array>
          </mxGeometry>
        </mxCell>
        <mxCell id="Zd8VVHACrejs0ei8sGvc-39" value="Доступ в личный кабинет" style="rounded=1;whiteSpace=wrap;html=1;" vertex="1" parent="1">
          <mxGeometry x="387" y="1840" width="120" height="60" as="geometry" />
        </mxCell>
        <mxCell id="Zd8VVHACrejs0ei8sGvc-40" style="edgeStyle=orthogonalEdgeStyle;rounded=0;orthogonalLoop=1;jettySize=auto;html=1;entryX=1;entryY=0.5;entryDx=0;entryDy=0;" edge="1" parent="1" source="Zd8VVHACrejs0ei8sGvc-41" target="Zd8VVHACrejs0ei8sGvc-29">
          <mxGeometry relative="1" as="geometry">
            <Array as="points">
              <mxPoint x="872" y="1650" />
            </Array>
          </mxGeometry>
        </mxCell>
        <mxCell id="Zd8VVHACrejs0ei8sGvc-41" value="Оповещение о несоответствии данных" style="rounded=1;whiteSpace=wrap;html=1;" vertex="1" parent="1">
          <mxGeometry x="813" y="1725" width="120" height="60" as="geometry" />
        </mxCell>
        <mxCell id="Zd8VVHACrejs0ei8sGvc-42" value="Конец" style="rounded=1;whiteSpace=wrap;html=1;" vertex="1" parent="1">
          <mxGeometry x="376" y="1960" width="142" height="20" as="geometry" />
        </mxCell>
        <mxCell id="Zd8VVHACrejs0ei8sGvc-43" style="edgeStyle=orthogonalEdgeStyle;rounded=0;orthogonalLoop=1;jettySize=auto;html=1;entryX=0;entryY=0.5;entryDx=0;entryDy=0;" edge="1" parent="1" source="Zd8VVHACrejs0ei8sGvc-44" target="Zd8VVHACrejs0ei8sGvc-7">
          <mxGeometry relative="1" as="geometry" />
        </mxCell>
        <mxCell id="Zd8VVHACrejs0ei8sGvc-44" value="Выход с личного кабинета" style="rounded=1;whiteSpace=wrap;html=1;" vertex="1" parent="1">
          <mxGeometry x="640" y="1260" width="120" height="60" as="geometry" />
        </mxCell>
      </root>
    </mxGraphModel>
  </diagram>
</mxfile>
